<svg xmlns="http://www.w3.org/2000/svg" viewBox="0 0 471.796 73.637">
  <defs>
    <style>
      .cls-1 {
        fill: #66839e;
      }

      .cls-2 {
        fill: #3e5163;
      }

      .cls-3 {
        fill: #3f4144;
      }
    </style>
  </defs>
  <g id="semasio_logo014" transform="translate(-185.377 362.714)">
    <g id="g12">
      <path id="path14" class="cls-1" d="M620.37-362.714a36.8,36.8,0,0,0-36.8,36.8,36.8,36.8,0,0,0,36.8,36.8,36.8,36.8,0,0,0,36.8-36.8A36.8,36.8,0,0,0,620.37-362.714Zm16.515,33.125a13.146,13.146,0,0,1-13.147-13.145,13.147,13.147,0,0,1,13.147-13.147,13.146,13.146,0,0,1,13.145,13.147,13.145,13.145,0,0,1-13.145,13.145"/>
      <path id="path16" class="cls-2" d="M656.118-348.7a12.929,12.929,0,0,1-12.929,12.929A12.93,12.93,0,0,1,630.258-348.7a12.931,12.931,0,0,1,12.931-12.931A12.93,12.93,0,0,1,656.118-348.7"/>
      <path id="path18" class="cls-3" d="M221.117-346.564a33.937,33.937,0,0,0-.624,3.352,29.877,29.877,0,0,0-.284,4.221q0,2.362.113,4.9t.113,3.913a.728.728,0,0,1-.453.621,2.707,2.707,0,0,1-1.023.311,2.045,2.045,0,0,1-1.02-.127.885.885,0,0,1-.567-.56q-1.25-6.576-4.085-10.119t-9.076-3.539a10.365,10.365,0,0,0-6.921,2.3,7.637,7.637,0,0,0-2.724,6.148,5.885,5.885,0,0,0,2.269,4.967,25.367,25.367,0,0,0,6.015,3.229q1.588.62,3.8,1.551t3.573,1.551q2.948,1.494,5.5,3.1a19.665,19.665,0,0,1,4.425,3.788,17.066,17.066,0,0,1,2.949,4.905,17.16,17.16,0,0,1,1.079,6.329,15.661,15.661,0,0,1-1.816,7.887,15.168,15.168,0,0,1-4.652,5.091,19.464,19.464,0,0,1-6.468,2.795,30.751,30.751,0,0,1-7.147.868,32.972,32.972,0,0,1-6.581-.747,25.539,25.539,0,0,1-6.353-2.111,1.52,1.52,0,0,0-1.417.249,2.635,2.635,0,0,0-.965,1.861c0,.249-.171.412-.509.5a4.734,4.734,0,0,1-1.08.124,2.378,2.378,0,0,1-.908-.185.6.6,0,0,1-.453-.557,22.284,22.284,0,0,1,.227-2.733,25.164,25.164,0,0,0,.227-3.228c0-.993-.055-2.091-.171-3.289s-.225-2.38-.339-3.541-.209-2.188-.285-3.1-.112-1.571-.112-1.987a.8.8,0,0,1,.453-.744,2.714,2.714,0,0,1,1.021-.309,2.355,2.355,0,0,1,1.077.121.917.917,0,0,1,.624.684,31.448,31.448,0,0,0,2.043,6.333,15.437,15.437,0,0,0,3.121,4.592,11.853,11.853,0,0,0,4.537,2.793,19.5,19.5,0,0,0,6.411.932,9.119,9.119,0,0,0,6.637-2.483,9.248,9.248,0,0,0,2.552-6.953,8.013,8.013,0,0,0-2.552-6.271,27.741,27.741,0,0,0-5.956-4.033q-1.592-.746-3.233-1.491t-3.348-1.491q-2.5-1.12-4.936-2.3a17.39,17.39,0,0,1-4.311-2.921,12.774,12.774,0,0,1-3.007-4.343,16.158,16.158,0,0,1-1.135-6.456,15.158,15.158,0,0,1,1.757-7.575,15.006,15.006,0,0,1,4.54-5.029,19.04,19.04,0,0,1,6.183-2.793,27.022,27.022,0,0,1,6.695-.869,17.868,17.868,0,0,1,5.616.807,20.83,20.83,0,0,1,5.389,2.92,1.357,1.357,0,0,0,1.192-.064q.736-.308,1.191-2.048a.8.8,0,0,1,.683-.621,3.593,3.593,0,0,1,1.132-.063,2.783,2.783,0,0,1,1.02.309c.3.169.417.375.343.623"/>
      <path id="path20" class="cls-3" d="M243.049-321.979q-.568,0-.624.433a7.976,7.976,0,0,0-.056,1.056,39.493,39.493,0,0,0,1.3,10.927A19.929,19.929,0,0,0,247.3-302.3a13.4,13.4,0,0,0,5.561,4.035,19.283,19.283,0,0,0,6.976,1.243,40.611,40.611,0,0,0,7.489-.684,12.564,12.564,0,0,0,6.24-3.045,1.36,1.36,0,0,1,1.192-.368,1.693,1.693,0,0,1,1.021.619,2.5,2.5,0,0,1,.509,1.117,1.45,1.45,0,0,1-.227,1.119,19.905,19.905,0,0,1-8.169,7.2,28.006,28.006,0,0,1-11.232,1.989,28.326,28.326,0,0,1-11.744-2.235,21.825,21.825,0,0,1-8.169-6.271,26.436,26.436,0,0,1-4.765-9.436,42.918,42.918,0,0,1-1.531-11.736,35.372,35.372,0,0,1,1.872-11.545,28.556,28.556,0,0,1,5.275-9.436,26,26,0,0,1,8.057-6.333,22.53,22.53,0,0,1,10.324-2.359,20.568,20.568,0,0,1,8.68,1.8,19.261,19.261,0,0,1,6.639,4.969,23.1,23.1,0,0,1,4.255,7.572,28.79,28.79,0,0,1,1.529,9.5q0,2.61-1.7,2.608Zm20.764-4.348c1.059,0,1.663-.411,1.815-1.24a16.733,16.733,0,0,0,.228-2.98,17.165,17.165,0,0,0-.739-5.031,14.221,14.221,0,0,0-2.1-4.283,10.71,10.71,0,0,0-3.289-2.981,8.688,8.688,0,0,0-4.425-1.116,11.076,11.076,0,0,0-5.276,1.18,11.866,11.866,0,0,0-3.745,3.1,13.534,13.534,0,0,0-2.325,4.533,31.489,31.489,0,0,0-1.135,5.461,11.849,11.849,0,0,0-.171,2.423c.037.621.208.929.512.929h20.649"/>
      <path id="path22" class="cls-3" d="M301.134-305.342q0,3.106.112,5.213a8.831,8.831,0,0,0,.795,3.477,4.622,4.622,0,0,0,2.212,2.111,14.476,14.476,0,0,0,4.255,1.117,1.44,1.44,0,0,1,1.021.684,2.453,2.453,0,0,1,.34,1.3,2.227,2.227,0,0,1-.34,1.179,1.116,1.116,0,0,1-1.021.559,45.29,45.29,0,0,1-5.617-.435,52.9,52.9,0,0,0-6.749-.433,56.1,56.1,0,0,0-7.036.433,49.925,49.925,0,0,1-6.24.435,1.024,1.024,0,0,1-.907-.559,2.217,2.217,0,0,1-.341-1.179,2.442,2.442,0,0,1,.341-1.3,1.44,1.44,0,0,1,1.021-.684,14.729,14.729,0,0,0,4.368-1.117,4.708,4.708,0,0,0,2.211-2.047,7.953,7.953,0,0,0,.795-3.229q.114-1.926.115-4.781v-18.376q0-5.836-.115-9.313a17.98,17.98,0,0,0-.795-5.337,4.263,4.263,0,0,0-2.1-2.544,11.067,11.067,0,0,0-4.14-.809,1.047,1.047,0,0,1-.908-.5,2.834,2.834,0,0,1-.453-1.117,1.8,1.8,0,0,1,.171-1.179.989.989,0,0,1,.963-.559q1.928-.246,5.616-.993t8-1.985a2.717,2.717,0,0,1,.908-.188c.453-.04.755-.061.908-.061a2.4,2.4,0,0,1,1.928.993,3.23,3.23,0,0,1,.683,2.359l-.229,6.083q0,.624.455.125.566-.866,1.872-2.608a20.9,20.9,0,0,1,3.4-3.475,21.129,21.129,0,0,1,5.107-3.044,17.147,17.147,0,0,1,6.865-1.3q7.032,0,11.117,3.043a19.5,19.5,0,0,1,6.356,9,15.992,15.992,0,0,1,2.155-3.417,22.522,22.522,0,0,1,4.085-3.972,26.236,26.236,0,0,1,5.673-3.291,17.346,17.346,0,0,1,6.92-1.365,18.939,18.939,0,0,1,8.851,1.8,13.692,13.692,0,0,1,5.333,4.905,19.744,19.744,0,0,1,2.609,7.389,59.09,59.09,0,0,1,.68,9.249v19.743q0,3.106.113,5.213a10.562,10.562,0,0,0,.681,3.477A4.3,4.3,0,0,0,375-294.541a10.385,10.385,0,0,0,3.632,1.117,1.443,1.443,0,0,1,1.02.684,2.454,2.454,0,0,1,.341,1.3,2.229,2.229,0,0,1-.341,1.179,1.116,1.116,0,0,1-1.02.559,38.812,38.812,0,0,1-4.653-.435,49.005,49.005,0,0,0-6.58-.433,54.749,54.749,0,0,0-6.979.433,47.14,47.14,0,0,1-5.956.435,1.024,1.024,0,0,1-.908-.559,2.227,2.227,0,0,1-.34-1.179,2.453,2.453,0,0,1,.34-1.3,1.442,1.442,0,0,1,1.021-.684,13.024,13.024,0,0,0,4.141-1.117,4.819,4.819,0,0,0,2.1-2.047,8.019,8.019,0,0,0,.793-3.229q.11-1.926.113-4.781v-16.017q0-3.348-.227-6.952a26.964,26.964,0,0,0-1.191-6.583,12.053,12.053,0,0,0-2.895-4.9,7.377,7.377,0,0,0-5.447-1.925,11.689,11.689,0,0,0-5.956,1.613,17.743,17.743,0,0,0-4.821,4.1,20.876,20.876,0,0,0-3.233,5.4,14.909,14.909,0,0,0-1.192,5.649v18.873q0,3.6.113,5.772a9.609,9.609,0,0,0,.68,3.416,3.5,3.5,0,0,0,1.816,1.8,14.884,14.884,0,0,0,3.631.932,1.445,1.445,0,0,1,1.021.684,2.466,2.466,0,0,1,.34,1.3,2.24,2.24,0,0,1-.34,1.179A1.119,1.119,0,0,1,343-289.7a38.819,38.819,0,0,1-4.652-.435,49.019,49.019,0,0,0-6.58-.433,54.717,54.717,0,0,0-6.979.433,45.277,45.277,0,0,1-5.616.435,1.026,1.026,0,0,1-.908-.559,2.229,2.229,0,0,1-.341-1.179,2.454,2.454,0,0,1,.341-1.3,1.442,1.442,0,0,1,1.021-.684,18.541,18.541,0,0,0,3.916-.932,3.756,3.756,0,0,0,2.041-1.736,7.805,7.805,0,0,0,.737-3.167q.112-1.986.113-5.34v-16.017q0-3.348-.284-6.952a26.824,26.824,0,0,0-1.3-6.583,11.925,11.925,0,0,0-3.064-4.9,7.942,7.942,0,0,0-5.673-1.925,13.429,13.429,0,0,0-6.637,1.552,13.609,13.609,0,0,0-4.539,4.036,17.738,17.738,0,0,0-2.609,5.525,22.3,22.3,0,0,0-.849,6.021v18.5"/>
      <path id="path24" class="cls-3" d="M426.688-303.727a17.338,17.338,0,0,0,.739,6.084,2.836,2.836,0,0,0,2.892,1.737,5.693,5.693,0,0,0,2.044-.311,13.242,13.242,0,0,0,2.272-1.3.6.6,0,0,1,.732,0,2.27,2.27,0,0,1,.684.683,2.917,2.917,0,0,1,.4.995,1.012,1.012,0,0,1-.227.929q-4.428,5.84-10.44,5.837A8.521,8.521,0,0,1,420.166-291a12.1,12.1,0,0,1-3.463-4.533q-.224-.618-.68-.121a25.636,25.636,0,0,1-6.864,4.719,22.84,22.84,0,0,1-9.816,1.861q-6.466,0-9.983-3.788t-3.519-10.74a15.287,15.287,0,0,1,7.6-13.721q7.6-4.774,22.125-4.777c.148,0,.264-.207.34-.621a21.507,21.507,0,0,0,.112-2.857v-3.352a36.061,36.061,0,0,0-.452-5.835,15.852,15.852,0,0,0-1.533-4.781,8.2,8.2,0,0,0-3.005-3.228,9,9,0,0,0-4.765-1.18,11.748,11.748,0,0,0-6.808,1.8,5.445,5.445,0,0,0-2.612,4.655,5.075,5.075,0,0,0,.795,2.671,5.078,5.078,0,0,1,.795,2.671,4.775,4.775,0,0,1-1.589,3.352,5.208,5.208,0,0,1-3.855,1.613q-3.066,0-4.372-1.8a7.322,7.322,0,0,1-1.3-4.409,11.738,11.738,0,0,1,1.589-5.9,15.1,15.1,0,0,1,4.312-4.779,22.462,22.462,0,0,1,6.352-3.168,24.429,24.429,0,0,1,7.6-1.179q9.074,0,14.295,4.595t5.219,15.272Zm-10.665-12.293a7.014,7.014,0,0,0-.112-1.675.534.534,0,0,0-.568-.312q-9.306.866-13.787,4.284a10.544,10.544,0,0,0-4.481,8.753,11,11,0,0,0,1.7,6.271q1.7,2.546,5.671,2.545a15.306,15.306,0,0,0,5.5-1.117,15.95,15.95,0,0,0,5.163-3.229,2.976,2.976,0,0,0,.907-1.985v-13.535"/>
      <path id="path26" class="cls-3" d="M477.485-346.564a33.119,33.119,0,0,0-.625,3.352,30.276,30.276,0,0,0-.285,4.221q0,2.362.116,4.9t.112,3.913a.721.721,0,0,1-.455.621,2.7,2.7,0,0,1-1.02.311,2.043,2.043,0,0,1-1.02-.127.885.885,0,0,1-.567-.56q-1.252-6.576-4.085-10.119t-9.077-3.539a10.375,10.375,0,0,0-6.923,2.3,7.643,7.643,0,0,0-2.723,6.148,5.886,5.886,0,0,0,2.271,4.967,25.409,25.409,0,0,0,6.013,3.229q1.588.62,3.8,1.551t3.577,1.551q2.944,1.494,5.5,3.1a19.694,19.694,0,0,1,4.425,3.788,17.033,17.033,0,0,1,2.948,4.905,17.161,17.161,0,0,1,1.079,6.329,15.661,15.661,0,0,1-1.815,7.887,15.2,15.2,0,0,1-4.652,5.091,19.493,19.493,0,0,1-6.467,2.795,30.774,30.774,0,0,1-7.149.868,32.972,32.972,0,0,1-6.581-.747,25.557,25.557,0,0,1-6.353-2.111,1.52,1.52,0,0,0-1.417.249,2.624,2.624,0,0,0-.964,1.861c0,.249-.172.412-.513.5a4.674,4.674,0,0,1-1.076.124,2.346,2.346,0,0,1-.907-.185.6.6,0,0,1-.455-.557,22.016,22.016,0,0,1,.227-2.733,25.418,25.418,0,0,0,.228-3.228q0-1.49-.172-3.289t-.34-3.541c-.113-1.159-.209-2.188-.283-3.1s-.113-1.571-.113-1.987a.8.8,0,0,1,.453-.744,2.716,2.716,0,0,1,1.02-.309,2.363,2.363,0,0,1,1.079.121.928.928,0,0,1,.625.684,31.537,31.537,0,0,0,2.04,6.333,15.462,15.462,0,0,0,3.121,4.592,11.863,11.863,0,0,0,4.537,2.793,19.51,19.51,0,0,0,6.411.932,9.11,9.11,0,0,0,6.637-2.483,9.25,9.25,0,0,0,2.556-6.953,8.016,8.016,0,0,0-2.556-6.271,27.665,27.665,0,0,0-5.955-4.033q-1.592-.746-3.235-1.491t-3.348-1.491q-2.494-1.12-4.935-2.3a17.341,17.341,0,0,1-4.311-2.921,12.719,12.719,0,0,1-3.007-4.343,16.181,16.181,0,0,1-1.135-6.456,15.143,15.143,0,0,1,1.756-7.575,15,15,0,0,1,4.539-5.029,19.079,19.079,0,0,1,6.185-2.793,27.012,27.012,0,0,1,6.693-.869,17.842,17.842,0,0,1,5.615.807,20.8,20.8,0,0,1,5.392,2.92,1.357,1.357,0,0,0,1.192-.064q.736-.308,1.191-2.048a.8.8,0,0,1,.68-.621,3.6,3.6,0,0,1,1.133-.063,2.812,2.812,0,0,1,1.023.309c.3.169.416.375.341.623"/>
      <path id="path28" class="cls-3" d="M506.653-305.342q0,3.106.111,5.213a8.877,8.877,0,0,0,.8,3.477,4.718,4.718,0,0,0,2.1,2.111,12.766,12.766,0,0,0,4.028,1.117,1.437,1.437,0,0,1,1.02.684,2.418,2.418,0,0,1,.343,1.3,2.195,2.195,0,0,1-.343,1.179,1.113,1.113,0,0,1-1.02.559,42.894,42.894,0,0,1-5.331-.435,51.654,51.654,0,0,0-6.7-.433,57.445,57.445,0,0,0-7.091.433,53.686,53.686,0,0,1-6.639.435,1.024,1.024,0,0,1-.907-.559,2.23,2.23,0,0,1-.343-1.179,2.454,2.454,0,0,1,.343-1.3,1.442,1.442,0,0,1,1.023-.684,16.513,16.513,0,0,0,4.592-1.117,4.972,4.972,0,0,0,2.384-2.047,7.407,7.407,0,0,0,.851-3.229q.112-1.926.115-4.781v-19.989q0-5.34-.227-8.568a14.361,14.361,0,0,0-1.021-4.905,4.349,4.349,0,0,0-2.384-2.295,19.363,19.363,0,0,0-4.309-.995,1.1,1.1,0,0,1-1.023-.623,2.555,2.555,0,0,1-.343-1.24,2.572,2.572,0,0,1,.343-1.241,1.1,1.1,0,0,1,1.023-.621c.752-.081,1.681-.164,2.777-.248s2.251-.185,3.463-.311,2.439-.288,3.687-.5,2.361-.435,3.345-.683a10.706,10.706,0,0,0,1.987-.559,3.272,3.272,0,0,1,1.192-.312,1.73,1.73,0,0,1,1.759.871,3.918,3.918,0,0,1,.4,1.612v39.859"/>
      <path id="path30" class="cls-3" d="M570.361-320.523a42.638,42.638,0,0,1-1.931,13.409,27.118,27.118,0,0,1-5.5,9.807,23.147,23.147,0,0,1-8.563,6.023,29.037,29.037,0,0,1-11.12,2.051,25.056,25.056,0,0,1-9.873-1.925,21.2,21.2,0,0,1-7.828-5.713,27.753,27.753,0,0,1-5.217-9.557,42.951,42.951,0,0,1-1.929-13.6,33.541,33.541,0,0,1,1.929-11.608,26.271,26.271,0,0,1,5.388-9,24.6,24.6,0,0,1,8.339-5.837,26.627,26.627,0,0,1,10.665-2.109,27.648,27.648,0,0,1,10.268,1.863,22.691,22.691,0,0,1,8.112,5.4,24.88,24.88,0,0,1,5.332,8.755,34.568,34.568,0,0,1,1.931,12.044Zm-11.913,1.365a72.6,72.6,0,0,0-.569-9.189,30,30,0,0,0-2.04-7.945,14.134,14.134,0,0,0-4.085-5.587,10.306,10.306,0,0,0-6.695-2.111,12.035,12.035,0,0,0-7.373,2.111,14.472,14.472,0,0,0-4.481,5.648,28.116,28.116,0,0,0-2.271,8.011,67.275,67.275,0,0,0-.627,9.309,69.234,69.234,0,0,0,.569,8.695,28.962,28.962,0,0,0,2.156,8.068,16.293,16.293,0,0,0,4.369,5.961,10.567,10.567,0,0,0,7.091,2.357,10.907,10.907,0,0,0,7.148-2.235A14.94,14.94,0,0,0,555.9-301.9a29.008,29.008,0,0,0,2.04-8.132,81.528,81.528,0,0,0,.511-9.127"/>
    </g>
  </g>
</svg>
